# xmcd
#
# Track frame offsets: 
#        150
#        27999
#        48605
#        72189
#        94958
#        107199
#        133825
#        147521
#        167961
#        197473
#        205267
#
# Disc length: 3259 seconds
#
# Revision: 1
# Processed by: cddbd v1.5.2PL0 Copyright (c) Steve Scherf et al.
# Submitted via: ExactAudioCopy v0.99pb5
#
DISCID=aa0cb90b
DTITLE=Cinematic Orchestra - Ma Fleur
DYEAR=2007
DGENRE=
TTITLE0=To Build A Home
TTITLE1=Familiar Ground
TTITLE2=Child Song
TTITLE3=Music Box
TTITLE4=Prelude
TTITLE5=As The Stars Fall
TTITLE6=Into You
TTITLE7=ma Fleur
TTITLE8=Breathe
TTITLE9=That Home
TTITLE10=Time and Space
EXTD=
EXTT0=
EXTT1=
EXTT2=
EXTT3=
EXTT4=
EXTT5=
EXTT6=
EXTT7=
EXTT8=
EXTT9=
EXTT10=
PLAYORDER=
